<?xml version="1.0" encoding="utf-8"?>

<!-- Uploaded to: SVG Repo, www.svgrepo.com, Generator: SVG Repo Mixer Tools -->
<svg fill="#FFDB6E" height="800px" width="800px" version="1.1" id="Icons" xmlns="http://www.w3.org/2000/svg" xmlns:xlink="http://www.w3.org/1999/xlink" 
	 viewBox="0 0 32 32" xml:space="preserve" opacity="0.7">
<g>
	<path d="M16,18c-0.6,0-1,0.4-1,1v2c0,0.6,0.4,1,1,1s1-0.4,1-1v-2C17,18.4,16.6,18,16,18z"/>
	<path d="M16,11c-1.7,0-3,1.3-3,3v1h6v-1C19,12.3,17.7,11,16,11z"/>
	<path d="M29.7,16.3l-4-4c0,0,0,0,0,0l-9-9c-0.4-0.4-1-0.4-1.4,0l-9,9c0,0,0,0,0,0l-4,4c-0.4,0.4-0.4,1,0,1.4s1,0.4,1.4,0L6,15.4V27
		c0,0.6,0.4,1,1,1h18c0.6,0,1-0.4,1-1V15.4l2.3,2.3c0.2,0.2,0.5,0.3,0.7,0.3s0.5-0.1,0.7-0.3C30.1,17.3,30.1,16.7,29.7,16.3z M22,22
		c0,1.7-1.3,3-3,3h-6c-1.7,0-3-1.3-3-3v-4c0-0.9,0.4-1.7,1-2.2V14c0-2.8,2.2-5,5-5s5,2.2,5,5v1.8c0.6,0.5,1,1.3,1,2.2V22z"/>
</g>
</svg>